<svg width="32" height="32" viewBox="0 0 32 32" fill="none" xmlns="http://www.w3.org/2000/svg">
<g id="Clip path group">
<mask id="mask0_15_1053" style="mask-type:luminance" maskUnits="userSpaceOnUse" x="0" y="0" width="32" height="32">
<g id="clip0_6_16158">
<path id="Vector" d="M32 0H0V32H32V0Z" fill="white"/>
</g>
</mask>
<g mask="url(#mask0_15_1053)">
<g id="Group">
<path id="Vector_2" d="M20.733 17.3332C21.733 17.3332 22.613 16.7865 23.0663 15.9598L27.8397 7.3065C28.333 6.4265 27.693 5.33317 26.6797 5.33317H6.94634L5.69301 2.6665H1.33301V5.33317H3.99967L8.79967 15.4532L6.99967 18.7065C6.02634 20.4932 7.30634 22.6665 9.33301 22.6665H25.333V19.9998H9.33301L10.7997 17.3332H20.733ZM8.21301 7.99984H24.413L20.733 14.6665H11.373L8.21301 7.99984ZM9.33301 23.9998C7.86634 23.9998 6.67967 25.1998 6.67967 26.6665C6.67967 28.1332 7.86634 29.3332 9.33301 29.3332C10.7997 29.3332 11.9997 28.1332 11.9997 26.6665C11.9997 25.1998 10.7997 23.9998 9.33301 23.9998ZM22.6663 23.9998C21.1997 23.9998 20.013 25.1998 20.013 26.6665C20.013 28.1332 21.1997 29.3332 22.6663 29.3332C24.133 29.3332 25.333 28.1332 25.333 26.6665C25.333 25.1998 24.133 23.9998 22.6663 23.9998Z" fill="#010A5A"/>
</g>
</g>
</g>
</svg>
