<svg xmlns="http://www.w3.org/2000/svg" viewBox="0 0 217.73 149.81"><defs><style>.cls-1{fill:#f37321;}.cls-2{fill:#263d88;}.cls-3{fill:#f8f9f9;}.cls-4{fill:none;stroke:#f37321;stroke-miterlimit:10;}</style></defs><g id="Layer_2" data-name="Layer 2"><g id="Layer_1-2" data-name="Layer 1"><path class="cls-1" d="M95.31,128.48a60.23,60.23,0,0,1-21-8.65,61.35,61.35,0,0,1-8.69-6.31c-2.59-2.34-5-4.89-7.51-7.32-2.27-2.19-3.84-4.92-5.75-7.37A66.54,66.54,0,0,1,44.74,86.2c-.87,1.33-1.74,2.66-2.59,4-.56.86-1.19,1.57-2.34,1.45-1.39-.15-3.08,0-3.87-1.28s.4-2.36,1-3.41c.35-.6.72-1.22,1.09-1.82.91-1.52,1.86-3,2.79-4.52l.57-.91h0l-3.26-8.3c-1.34-.37-3.15,1.24-3.95-.22-.89-1.62,1-2.83,1.78-4.2a5.49,5.49,0,0,1,.88-1,3.63,3.63,0,0,1-1-2.13c-1.6-6.26-3-12.57-3.21-19-.1-3.53-1.4-7.12,0-10.64,1.65-4.31,2.86-8.66,2.56-13.35-.06-.81-.4-2,.6-2.43s1.82.4,2.71.79c1,.44,2.09,2.55,2.92,1.36s-1.19-2.24-2.14-3.22a2.9,2.9,0,0,0-.69-.4c-1.16-.71-2.37-1-2.44-3,0-1.57-2.09-1.28-2.67-.43-1.17,1.69-2.28.81-3.5.47-2.59-.73-4.24-3-6.63-4-2.22-1-2.67-2.45-1.39-4.55a13.43,13.43,0,0,0,1.35-2.3A2.16,2.16,0,0,0,21.88.22a2.25,2.25,0,0,0-3,1.09c-.24.37-.49.85,0,1.2s.85,0,1-.42c.35-1.06,1-1.25,1.83-.64s.55,1.44,0,2.13S20,5.1,20.21,6c.93,4-2.53,5.06-4.7,6.55-1.86,1.27-4.37,2.68-6.87.44-.58-.52-2.3-.32-2.26.58.12,2.74-2.3,3.11-3.62,4.49C1.93,19,.16,20.09,1,21c1,1.14,1.84-.94,2.83-1.45S6,17.51,7,18.39s1.24,2.52,1,4a6.23,6.23,0,0,1-.49,1.25,8.4,8.4,0,0,0,.88,8.65,35.34,35.34,0,0,1,2.43,3.87c.92,1.68,1.53,4.68,2.63,4.85,1.67.27,3.66-1.37,5.51-2.21,0,1.06-.86,1.48-1.57,1.93A92.61,92.61,0,0,0,8.05,47.5C.28,53.76-2,63.84,2.42,73.27a22.59,22.59,0,0,0,3.25-5.18c1-1.7,1.71-3.53,3.34-4.89.37.93-.14,1.42-.41,2A75.72,75.72,0,0,0,.42,92.81c-.88,9.9-.67,19.73,3.53,29,1,2.32,1.73,4.91,4.26,7.17a79.58,79.58,0,0,1,1.38-23.19c4.06,21,4.82,23.15,10.54,30.33,6.8,8.53,18.71,14.33,28.52,13.62-6.4-6.14-11.47-12.88-14.55-21.11,6.49,8.17,14.32,14.57,24.28,17.7,10.64,3.34,22.4.27,28.87-5.47-4-.82-8.06-1-11.83-2.48a97.41,97.41,0,0,1-10.75-4.91c-3.53-1.94-8.09-5.66-9.39-7.89,6.62,3.65,12.83,6.9,20.07,7.6C82.16,133.85,92.81,131.65,95.31,128.48ZM10.1,62.07c0,.12-.26.16-.4.24,0-.16-.14-.33-.09-.43s.25-.16.39-.24C10,61.79,10.15,62,10.1,62.07ZM20,38.37a.78.78,0,0,1-.38.32l-.13,0-.1,0H19a.93.93,0,0,1,1-.5A.75.75,0,0,1,20,38.37ZM31.45,19.18a5.51,5.51,0,0,1-2.87,2.67,23.39,23.39,0,0,1-6.13,1.37,25.68,25.68,0,0,1-9-2c-1.83-.7-2-2.37-2.45-3.89-.24-.85.42-1,1.06-1.2,2.63-.84,5.25-1.73,7.88-2.6,1.67-.55,3.17.17,4.68.69,1.86.63,3.66,1.45,5.55,2S32.22,17.68,31.45,19.18Z"/><path class="cls-2" d="M184,64.79c-.37,0-.67,0-.85-.2-2.13-2.91-5-1.7-7.2-.72-7.41,3.34-12.81,8.85-15.28,16.74-1,3.08-3.09,4.71-5.71,6-1,.47-2.31,1-3.22-.13-.78-1-.14-2.07.39-3,2.16-3.82,4.38-7.6,6.55-11.41,1-1.71,1.94-3.43,2.8-5.2.61-1.24.89-2.59-.4-3.67a2.74,2.74,0,0,0-3.48,0,22.85,22.85,0,0,0-5.49,4.7c-.42.5-.94,1.14-.36,1.65,1.73,1.5.49,2.69-.26,4-1.09,1.85-2.32,3.64-3.22,5.58-1.6,3.42-4.35,5.64-7.44,7.5-.55.34-1.12,1.56-1.92.82a2.49,2.49,0,0,1-.57-3c.93-2,1.8-4.1,2.76-6.11,1.79-3.71,3.65-7.38,5.42-11.09.55-1.15.86-2.47-.16-3.52-.88-.89-2.09-.8-3.29-.69a11.27,11.27,0,0,0-6.4,3.21c-2.42,2.12-4.72,4.38-7.07,6.58a.68.68,0,0,1-1,.24l.58-.68c4-8,8.81-15.57,13.52-23.19,1.67-2.7,3.64-5.22,4.94-8.18.58-1.32.25-2.39-.83-2.24-2.15.3-4.25.67-5.7,3A381.37,381.37,0,0,0,116,89.22c-.24.56-1,1.27-.3,1.93a2.47,2.47,0,0,0,2.49.51,4.48,4.48,0,0,0,2.25-1.77,227.5,227.5,0,0,1,15.78-17.64c.63-.63,1.14-1.54,2.39-1.64a5.55,5.55,0,0,1-1.15,2.83c-2,3.72-4,7.39-5.09,11.5-1.22,4.77,1.16,7.58,6,7.14a11.5,11.5,0,0,0,6-2.22c.94-.71,1.45-1,2.36.1,2,2.42,4.75,2.57,7.63,1.83a18.63,18.63,0,0,0,4.84-2.28c.48-.28.86-.93,1.55-.14,3.24,3.75,7,2.61,10.46.67,7.45-4.18,12.55-10.54,15.85-18.36a9.47,9.47,0,0,0,.61-3.14C187.83,65.71,186.87,64.73,184,64.79Zm-2.62,6.66c-3.14,6.11-7,11.46-13.22,14.77-.75.4-1.37,1-2.3.37s-.91-1.62-.9-2.83c.56-3.35,2.59-6.16,4.72-8.94a22.85,22.85,0,0,1,8-6.63c.62-.31,1.52-1.54,2.2-.23C180.35,69.06,182.48,69.24,181.33,71.45Z"/><path class="cls-2" d="M121.21,63.45c-.46-1.81-2.17-1.93-3.7-2.08a17.72,17.72,0,0,0-5.89.83c-5.68,1.36-10.94,3.5-14.62,8.23-3.16,4.07-1.8,7.76,3.13,9.18,2.49.72,5,1.22,7.54,1.92.7.2,1.73.34,1.77,1.38s-.81,1.32-1.52,1.7A32.39,32.39,0,0,1,101,87c-2.31.62-3.1-.4-3.78-2a11.7,11.7,0,0,1-.57-2.86c-.11-.69.09-1.58-.72-1.89-1-.38-1.38.61-1.91,1.15-1.68,1.74-3.21,3.63-5.35,4.87-.77.45-1.62,1.05-2.46.4a2.22,2.22,0,0,1-.51-2.48c.24-.86.39-1.75.67-2.59a56.53,56.53,0,0,1,6.3-13c.82-1.27,1.34-2.42,0-3.48s-2.47-.7-3.69.13c-.43.28-.58,1.34-1.44.63-3.38-2.82-7-1.31-10.12.09A27.73,27.73,0,0,0,65,77.46a16.14,16.14,0,0,0-2.32,7.91c-.11,5.11,3.72,7.71,8.48,5.79a23.28,23.28,0,0,0,7.18-5.1c.57-.54.89-1.63,2.06-1.29-.29,7.22,3.94,8,8.85,6.21,2.06-.76,3.62-2.47,5.55.12.43.58,1.63.73,2.49.81a20.73,20.73,0,0,0,16.5-5.63,5.09,5.09,0,0,0,1.56-5.64c-.74-2.09-2.57-3.11-4.66-3.65-2.8-.72-5.56-1.55-8.37-2.16-2.27-.49-1.63-1.44-.49-2.43A20.86,20.86,0,0,1,113,67c.68-.31.83-.07.6.57-1,2.06.45,2.38,1.87,2.41a7,7,0,0,0,4-1.56A4.33,4.33,0,0,0,121.21,63.45ZM70.89,85.17c-.74.52-1.52,1.66-2.53.77-.76-.67-.22-1.66.17-2.49C71.64,76.86,76,71.51,83.08,68.84a5.84,5.84,0,0,1,3.1-.34A57.6,57.6,0,0,1,70.89,85.17Z"/><path class="cls-2" d="M81.83,43.48a16.65,16.65,0,0,1-8.89,3.42,3,3,0,0,0-2.38.94c-4.15,5.26-8,10.7-12,16.66,2.39-.12,4.21.82,6.16,1.07.84.11,1.11.5,1.08,1.19,0,1-3.35,4-4.36,3.78C56,69.1,53.1,71.9,50.81,76.39c-1.74,3.41-4,6.55-6.07,9.81-.87,1.33-1.74,2.66-2.59,4-.56.86-1.19,1.57-2.34,1.45-1.39-.15-3.08,0-3.87-1.28s.4-2.36,1-3.41c.36-.61.72-1.22,1.09-1.82.91-1.52,1.86-3,2.79-4.52l.57-.91h0c2-2.91,4.09-5.81,6.45-9.16l-9.71.86c-1.34-.37-3.15,1.24-3.95-.22-.89-1.62,1-2.83,1.78-4.2a5.49,5.49,0,0,1,.88-1c3.57-.67,7.2-1.81,10.8-1.23,2.76.44,4.44-.14,5.89-2.41A155,155,0,0,1,63.2,49c-3.39.29-6.44.57-9.49.78-4.82.34-9.62.49-14.35-.73-1.59-.41-3.21-1-4-2.5s-1.1-3.06.23-4.38S38.2,40,40.08,40.86a4.81,4.81,0,0,0,1.18.32c-.33.39-1.5.91-1,1.69a3.6,3.6,0,0,0,3.08,1.66c6.05-.54,12.1.2,18.16-.35,4.17-.37,8.14-.51,11.48-3.56,1.93-1.77,4.6-1.77,7.1-1.91A2.64,2.64,0,0,1,83,40.53C83.51,42,82.74,42.73,81.83,43.48Z"/><path class="cls-2" d="M207.29,69.08c-7.11,5.57-13,12.27-18.52,19.39-.54.7-1.1,1.62-1.85,1.89a3.46,3.46,0,0,1-3.82-.91c-1-1.1,0-2,.43-2.83q5.75-9.86,11.6-19.66c1.25-2.11,2.5-4.06,5.49-4,1.71,0,2.41.37,1.74,2.05-.44,1.11-1,2.17-1.58,3.31,1.65.2,2.38-1.17,3.31-2a13.45,13.45,0,0,1,8.26-3.39c2.2-.15,3.65,2,2.66,4.49a29.61,29.61,0,0,1-2.8,4.88c-2.35,3.6-4.94,7-6.67,11-.47,1.08-1.28,2.29.1,3.4s2.41.26,3.48-.3c2.4-1.28,4.21-3.32,6.18-5.14.55-.5,1.08-1.49,2-1s.21,1.47.36,2.12c.46,2.06-.66,3.14-2,4.19-1.76,1.38-3.53,2.75-5.35,4.05-2.14,1.54-4.61,1.35-6.92.76-2.81-.71-4.06-3.82-3.17-7.32A29.65,29.65,0,0,1,204,75.84c1.26-2,2.58-4.08,3.88-6.12.2-.28.42-.59.1-.87C207.85,68.78,207.51,69,207.29,69.08Z"/><path class="cls-2" d="M161.9,56.21c.25-2.83,3.12-5.56,5.54-5,1,.22,2.13.8,1.9,2.4C169,56,165.77,59,163.63,58.73,162.38,58.57,161.77,57.67,161.9,56.21Z"/><path class="cls-3" d="M41.38,79.7h0c-1.09-2.76-2.17-5.53-3.26-8.3Z"/><path class="cls-3" d="M9.7,62.31c0-.16-.14-.34-.09-.43s.25-.16.39-.24c0,.15.15.33.1.43S9.84,62.23,9.7,62.31Z"/><path class="cls-3" d="M20.06,38.22a.94.94,0,0,1-1.09.52l0,0a1,1,0,0,1,1.09-.53Z"/><polygon class="cls-3" points="21.17 37.16 21.24 37.06 21.15 37.13 21.17 37.16"/><path class="cls-3" d="M21.15,37.13l-.54.54,0,0,.54-.54Z"/><path class="cls-3" d="M20.09,38.25l.54-.55,0,0-.55.55Z"/><path class="cls-2" d="M129.56,72.82a.69.69,0,0,1-1,.24l.58-.68C129.26,72.53,129.41,72.68,129.56,72.82Z"/><path class="cls-2" d="M113,67c.67-.32.82-.08.59.56Z"/><path class="cls-2" d="M207.29,69.08c.22-.08.56-.3.65-.23.32.28.1.59-.1.87C207.66,69.51,207.47,69.3,207.29,69.08Z"/><path class="cls-2" d="M98.56,103.62a2.89,2.89,0,0,1-1.29,1.23,4.5,4.5,0,0,1-2,.41c-.25,0-.54,0-.87,0a3.76,3.76,0,0,1-.92-.17c-.35-.12-.52-.32-.52-.61v-5.8a.41.41,0,0,1,.11-.3.64.64,0,0,1,.29-.17,3.83,3.83,0,0,1,.87-.17c.32,0,.63,0,.93,0a4.68,4.68,0,0,1,2,.4,3,3,0,0,1,1.34,1.19,3.8,3.8,0,0,1,.49,2A4.17,4.17,0,0,1,98.56,103.62Zm-1.12-3.55a2.07,2.07,0,0,0-.92-.84,2.89,2.89,0,0,0-1.3-.28,4.61,4.61,0,0,0-.56,0l-.47,0v5.13a4,4,0,0,0,.53.08,5.52,5.52,0,0,0,.58,0,2.42,2.42,0,0,0,1.84-.68,3.41,3.41,0,0,0,.3-3.51Z"/><path class="cls-2" d="M100.91,103.07l-.06-.86,3.28-.46a1.42,1.42,0,0,0-.38-.9,1.29,1.29,0,0,0-1-.37,1.39,1.39,0,0,0-1.07.46,2,2,0,0,0-.44,1.32l0,.43a1.75,1.75,0,0,0,.58,1.23,2,2,0,0,0,1.31.41,2.56,2.56,0,0,0,.89-.15,2.92,2.92,0,0,0,.64-.32.61.61,0,0,1,.23.22.52.52,0,0,1,.08.3.59.59,0,0,1-.25.46,1.7,1.7,0,0,1-.69.32,3.58,3.58,0,0,1-1,.12,3.51,3.51,0,0,1-1.56-.33,2.37,2.37,0,0,1-1.05-1,3.18,3.18,0,0,1-.37-1.6,3.27,3.27,0,0,1,.21-1.21,2.71,2.71,0,0,1,.56-.88,2.29,2.29,0,0,1,.85-.54,3,3,0,0,1,1-.19,2.66,2.66,0,0,1,1.28.31,2.1,2.1,0,0,1,.87.85,2.4,2.4,0,0,1,.32,1.23.58.58,0,0,1-.14.43.63.63,0,0,1-.4.16Z"/><path class="cls-2" d="M110.54,103.63a1.44,1.44,0,0,1-.57,1.21,2.68,2.68,0,0,1-1.65.44,3.5,3.5,0,0,1-1.48-.27c-.39-.18-.58-.41-.58-.68a.56.56,0,0,1,.09-.31.66.66,0,0,1,.23-.24,5.24,5.24,0,0,0,.75.38,2.4,2.4,0,0,0,1,.17c.72,0,1.09-.23,1.09-.69a.66.66,0,0,0-.19-.48,1.17,1.17,0,0,0-.56-.26l-.8-.21a2.26,2.26,0,0,1-1.14-.56,1.34,1.34,0,0,1-.37-1,1.4,1.4,0,0,1,.55-1.13,2.38,2.38,0,0,1,1.59-.47,4,4,0,0,1,1,.11,1.84,1.84,0,0,1,.66.31.59.59,0,0,1,.23.44.57.57,0,0,1-.08.32.6.6,0,0,1-.21.21,2.38,2.38,0,0,0-.37-.2,2.89,2.89,0,0,0-.52-.17,2.48,2.48,0,0,0-.61-.07,1.48,1.48,0,0,0-.76.17.53.53,0,0,0-.29.48.57.57,0,0,0,.16.38,1,1,0,0,0,.55.25l.68.18a2.55,2.55,0,0,1,1.27.6A1.42,1.42,0,0,1,110.54,103.63Z"/><path class="cls-2" d="M111.75,98.07a.66.66,0,0,1,.21-.5.73.73,0,0,1,.51-.2.7.7,0,0,1,.52.2.69.69,0,0,1,.2.5.68.68,0,0,1-.72.69.73.73,0,0,1-.51-.2A.67.67,0,0,1,111.75,98.07Zm1.32,4.6h-1.19V99.75l.23,0a1.69,1.69,0,0,1,.33,0,.81.81,0,0,1,.48.12.53.53,0,0,1,.15.43Zm-1.19-.6h1.19v3a.81.81,0,0,1-.22.07,1.66,1.66,0,0,1-.32,0,.82.82,0,0,1-.49-.13.51.51,0,0,1-.16-.42Z"/><path class="cls-2" d="M117,104.93a2.84,2.84,0,0,1-1.24-.26,2,2,0,0,1-.92-.85,3.11,3.11,0,0,1-.34-1.56,2.93,2.93,0,0,1,.34-1.49,2.19,2.19,0,0,1,1-.91,3.19,3.19,0,0,1,1.42-.31,3.44,3.44,0,0,1,1,.15,3.28,3.28,0,0,1,.77.34.93.93,0,0,1,.3.29.65.65,0,0,1,.12.39v3.59h-1.17v-3.52a2.09,2.09,0,0,0-.42-.19,1.89,1.89,0,0,0-.62-.09,1.52,1.52,0,0,0-1.13.44,1.74,1.74,0,0,0-.44,1.29,1.84,1.84,0,0,0,.43,1.37,1.53,1.53,0,0,0,1.06.39,1.62,1.62,0,0,0,.76-.16,2.13,2.13,0,0,0,.48-.35l0,1a1.62,1.62,0,0,1-.56.31A2.34,2.34,0,0,1,117,104.93Zm1.3.28V104h1.16v1.23a2.1,2.1,0,0,1-.35,1.25,2,2,0,0,1-.94.7,3.94,3.94,0,0,1-1.33.22,3.86,3.86,0,0,1-1-.12,2.71,2.71,0,0,1-.61-.23.63.63,0,0,1-.37-.56.54.54,0,0,1,.09-.33.67.67,0,0,1,.2-.21,2.4,2.4,0,0,0,.7.33,2.94,2.94,0,0,0,.94.15,1.89,1.89,0,0,0,1.14-.3A1.13,1.13,0,0,0,118.26,105.21Z"/><path class="cls-2" d="M125.85,101.57v1.15h-1.19v-1.1a1,1,0,0,0-.33-.84,1.28,1.28,0,0,0-.86-.27,2.38,2.38,0,0,0-.73.11,2.83,2.83,0,0,0-.55.24v1.86H121v-1.9a.81.81,0,0,1,.11-.43,1.06,1.06,0,0,1,.34-.32,3.63,3.63,0,0,1,.85-.35,3.89,3.89,0,0,1,1.17-.17,2.72,2.72,0,0,1,1.75.51A1.81,1.81,0,0,1,125.85,101.57Zm-4.85.55h1.19v3a.9.9,0,0,1-.23.07,1.48,1.48,0,0,1-.31,0,.82.82,0,0,1-.49-.13.48.48,0,0,1-.16-.42Zm3.66,0h1.19v3a.9.9,0,0,1-.23.07,1.66,1.66,0,0,1-.32,0,.82.82,0,0,1-.49-.13.51.51,0,0,1-.15-.42Z"/><path class="cls-2" d="M127.94,103.07l-.06-.86,3.28-.46a1.38,1.38,0,0,0-.39-.9,1.25,1.25,0,0,0-1-.37,1.38,1.38,0,0,0-1.07.46,2,2,0,0,0-.44,1.32l0,.43a1.8,1.8,0,0,0,.59,1.23,2,2,0,0,0,1.31.41,2.56,2.56,0,0,0,.89-.15,2.92,2.92,0,0,0,.64-.32.61.61,0,0,1,.23.22.52.52,0,0,1,.08.3.59.59,0,0,1-.25.46,1.7,1.7,0,0,1-.69.32,3.93,3.93,0,0,1-2.54-.21,2.4,2.4,0,0,1-1-1,3.18,3.18,0,0,1-.37-1.6,3.27,3.27,0,0,1,.21-1.21,2.71,2.71,0,0,1,.56-.88,2.29,2.29,0,0,1,.85-.54,2.94,2.94,0,0,1,1-.19,2.67,2.67,0,0,1,1.29.31,2.16,2.16,0,0,1,.87.85,2.4,2.4,0,0,1,.32,1.23.58.58,0,0,1-.14.43.63.63,0,0,1-.4.16Z"/><path class="cls-2" d="M137.15,104.06V100.3h1.18v3.85a.67.67,0,0,1-.1.39,1.07,1.07,0,0,1-.33.29,2.85,2.85,0,0,1-.71.3,3.26,3.26,0,0,1-1,.15,3.66,3.66,0,0,1-1.53-.3,2.19,2.19,0,0,1-1-.93,3.12,3.12,0,0,1-.37-1.61,3.19,3.19,0,0,1,.37-1.64,2.27,2.27,0,0,1,1-.94,3.13,3.13,0,0,1,1.37-.31,2.64,2.64,0,0,1,.81.12,2,2,0,0,1,.61.29v1a1.78,1.78,0,0,0-.54-.34,1.86,1.86,0,0,0-1.57,0,1.44,1.44,0,0,0-.6.62,2.57,2.57,0,0,0-.21,1.12,1.9,1.9,0,0,0,.46,1.42,1.68,1.68,0,0,0,1.23.45,2,2,0,0,0,.59-.08A2.79,2.79,0,0,0,137.15,104.06Zm1.18-3.49h-1.18v-3l.22-.06a1.47,1.47,0,0,1,.32,0,.8.8,0,0,1,.49.13.55.55,0,0,1,.15.43Z"/><path class="cls-2" d="M143.47,100.52h-1.19V97.63l.23-.06a1.65,1.65,0,0,1,.32,0,.76.76,0,0,1,.48.13.52.52,0,0,1,.16.43Zm1.35-1a2.77,2.77,0,0,1,1.32.32,2.22,2.22,0,0,1,.92.95,3.39,3.39,0,0,1,.33,1.58A3.23,3.23,0,0,1,147,104a2.28,2.28,0,0,1-1,.95,3.25,3.25,0,0,1-1.47.32,3.52,3.52,0,0,1-1.08-.15,3.46,3.46,0,0,1-.79-.34,1.25,1.25,0,0,1-.35-.33.87.87,0,0,1-.1-.42v-3.77h1.19V104a2.25,2.25,0,0,0,.46.21,2,2,0,0,0,.67.1,1.47,1.47,0,0,0,1.15-.47,2,2,0,0,0,.44-1.45,2,2,0,0,0-.44-1.43,1.46,1.46,0,0,0-1.13-.46,1.73,1.73,0,0,0-.76.17,2.63,2.63,0,0,0-.55.37l-.14-1a3.52,3.52,0,0,1,.68-.37A2.37,2.37,0,0,1,144.82,99.55Z"/><path class="cls-2" d="M149.6,103.87c-.13-.25-.28-.58-.45-1s-.35-.85-.53-1.36-.37-1-.54-1.63a.84.84,0,0,1,.27-.21.86.86,0,0,1,.36-.08.7.7,0,0,1,.42.12.76.76,0,0,1,.25.41c.21.63.43,1.24.66,1.85s.47,1.23.74,1.88h0a10.79,10.79,0,0,0,.47-1.2c.17-.47.32-1,.47-1.48s.27-1,.37-1.46a1.35,1.35,0,0,1,.24-.08.84.84,0,0,1,.69.08.41.41,0,0,1,.16.37,3.64,3.64,0,0,1-.09.67c-.07.3-.16.63-.28,1s-.26.77-.41,1.19-.31.81-.49,1.2a10.46,10.46,0,0,1-.53,1.06,8.63,8.63,0,0,1-1,1.55,1.28,1.28,0,0,1-.88.53.69.69,0,0,1-.51-.18.79.79,0,0,1-.23-.43,7.1,7.1,0,0,0,.55-.55,7,7,0,0,0,.58-.72,6.19,6.19,0,0,0,.46-.73,1,1,0,0,1-.37-.22A2.35,2.35,0,0,1,149.6,103.87Z"/><path class="cls-2" d="M157.74,103.87a8.65,8.65,0,0,1-.45-1c-.17-.4-.35-.85-.54-1.36s-.36-1-.54-1.63a1,1,0,0,1,.27-.21.91.91,0,0,1,.37-.08.66.66,0,0,1,.41.12.77.77,0,0,1,.26.41c.2.63.42,1.24.65,1.85s.48,1.23.74,1.88H159c.15-.33.31-.73.47-1.2s.32-1,.46-1.48.27-1,.37-1.46l.25-.08a.75.75,0,0,1,.26,0,.7.7,0,0,1,.42.12.41.41,0,0,1,.17.37,3.07,3.07,0,0,1-.1.67,10,10,0,0,1-.28,1c-.11.38-.25.77-.4,1.19s-.31.81-.49,1.2-.35.75-.53,1.06a8.63,8.63,0,0,1-1,1.55,1.28,1.28,0,0,1-.89.53.68.68,0,0,1-.5-.18.73.73,0,0,1-.23-.43c.16-.15.35-.33.55-.55a8.67,8.67,0,0,0,.58-.72,6.19,6.19,0,0,0,.46-.73,1,1,0,0,1-.38-.22A2.14,2.14,0,0,1,157.74,103.87Z"/><path class="cls-2" d="M167.62,102.42a3.29,3.29,0,0,1-.34,1.51,2.41,2.41,0,0,1-.95,1,3.12,3.12,0,0,1-2.87,0,2.37,2.37,0,0,1-1-1,3.12,3.12,0,0,1-.34-1.51,3.16,3.16,0,0,1,.34-1.52,2.37,2.37,0,0,1,1-1,2.79,2.79,0,0,1,1.43-.36,2.72,2.72,0,0,1,1.42.36,2.33,2.33,0,0,1,1,1A3.16,3.16,0,0,1,167.62,102.42Zm-2.73-1.91a1.33,1.33,0,0,0-1.1.51,2.62,2.62,0,0,0,0,2.8,1.47,1.47,0,0,0,2.22,0,2.63,2.63,0,0,0,0-2.79A1.31,1.31,0,0,0,164.89,100.51Z"/><path class="cls-2" d="M170.11,102.69h-1.19v-3l.23-.06a1.66,1.66,0,0,1,.32,0,.77.77,0,0,1,.48.12.49.49,0,0,1,.16.43Zm-1.19.41v-1h1.19v.94a1.22,1.22,0,0,0,.35,1,1.51,1.51,0,0,0,1,.29,2.26,2.26,0,0,0,.69-.09,2,2,0,0,0,.45-.17v-1.94h1.19v2a1,1,0,0,1-.08.42.91.91,0,0,1-.33.31,3.31,3.31,0,0,1-.78.31,4.44,4.44,0,0,1-1.16.14,3.65,3.65,0,0,1-1.34-.23,1.8,1.8,0,0,1-.86-.72A2.29,2.29,0,0,1,168.92,103.1Zm4.85-.41h-1.19v-3l.23-.06a1.55,1.55,0,0,1,.31,0,.8.8,0,0,1,.49.12.52.52,0,0,1,.16.43Z"/><path class="cls-2" d="M176.55,100.87v1.7h-1.19v-1.72a.81.81,0,0,1,.12-.46,1.32,1.32,0,0,1,.36-.34,3.25,3.25,0,0,1,.85-.35,4.6,4.6,0,0,1,1.15-.13c.67,0,1,.18,1,.56a.9.9,0,0,1-.13.46l-.3,0a2.19,2.19,0,0,0-.36,0,3.26,3.26,0,0,0-.86.11A3.08,3.08,0,0,0,176.55,100.87Zm-1.19,1.2,1.19.1v2.92a.9.9,0,0,1-.23.07,1.51,1.51,0,0,1-.32,0,.81.81,0,0,1-.48-.13.48.48,0,0,1-.16-.42Z"/><path class="cls-2" d="M183.85,103.63a1.44,1.44,0,0,1-.57,1.21,2.68,2.68,0,0,1-1.65.44,3.5,3.5,0,0,1-1.48-.27c-.39-.18-.58-.41-.58-.68a.56.56,0,0,1,.09-.31.62.62,0,0,1,.24-.24,4.63,4.63,0,0,0,.74.38,2.4,2.4,0,0,0,1,.17c.73,0,1.09-.23,1.09-.69a.62.62,0,0,0-.19-.48,1.17,1.17,0,0,0-.56-.26l-.8-.21a2.26,2.26,0,0,1-1.14-.56,1.34,1.34,0,0,1-.37-1,1.4,1.4,0,0,1,.55-1.13,2.38,2.38,0,0,1,1.59-.47,4,4,0,0,1,1,.11,1.84,1.84,0,0,1,.66.31.59.59,0,0,1,.23.44.57.57,0,0,1-.08.32.6.6,0,0,1-.21.21,2.38,2.38,0,0,0-.37-.2,2.89,2.89,0,0,0-.52-.17,2.48,2.48,0,0,0-.61-.07,1.48,1.48,0,0,0-.76.17.53.53,0,0,0-.12.86.91.91,0,0,0,.54.25l.68.18a2.55,2.55,0,0,1,1.27.6A1.42,1.42,0,0,1,183.85,103.63Z"/><path class="cls-2" d="M188.64,102.39h-1.19V98.23l.24-.06a1.55,1.55,0,0,1,.32,0,.81.81,0,0,1,.48.13.55.55,0,0,1,.15.43Zm-1.19-.32h1.19v1.48a.67.67,0,0,0,.25.59,1.18,1.18,0,0,0,.68.17,1.62,1.62,0,0,0,.41-.06,1.38,1.38,0,0,0,.38-.14.87.87,0,0,1,.15.21.6.6,0,0,1,.06.27.56.56,0,0,1-.31.49,1.71,1.71,0,0,1-.91.2,2.22,2.22,0,0,1-1.38-.39,1.5,1.5,0,0,1-.52-1.27Zm.69-1.29v-1h2.29a1,1,0,0,1,.09.2.75.75,0,0,1,0,.26.56.56,0,0,1-.11.37.4.4,0,0,1-.31.12Z"/><path class="cls-2" d="M193,100.87v1.7H191.8v-1.72a.81.81,0,0,1,.13-.46,1.32,1.32,0,0,1,.36-.34,3.11,3.11,0,0,1,.85-.35,4.6,4.6,0,0,1,1.15-.13c.67,0,1,.18,1,.56a.79.79,0,0,1-.14.46l-.29,0a2.22,2.22,0,0,0-.37,0,3.36,3.36,0,0,0-1.5.35Zm-1.19,1.2,1.19.1v2.92a.71.71,0,0,1-.22.07,1.58,1.58,0,0,1-.32,0,.79.79,0,0,1-.48-.13.49.49,0,0,1-.17-.42Z"/><path class="cls-2" d="M197.48,102.69h-1.19v-3l.24-.06a1.58,1.58,0,0,1,.32,0,.81.81,0,0,1,.48.12.52.52,0,0,1,.15.43Zm-1.19.41v-1h1.19v.94a1.22,1.22,0,0,0,.35,1,1.53,1.53,0,0,0,1,.29,2.33,2.33,0,0,0,.7-.09,1.93,1.93,0,0,0,.44-.17v-1.94h1.19v2a.88.88,0,0,1-.08.42.79.79,0,0,1-.32.31,3.41,3.41,0,0,1-.79.31,4.36,4.36,0,0,1-1.15.14,3.61,3.61,0,0,1-1.34-.23,1.78,1.78,0,0,1-.87-.72A2.29,2.29,0,0,1,196.29,103.1Zm4.85-.41H200v-3l.23-.06a1.66,1.66,0,0,1,.32,0,.82.82,0,0,1,.49.12.52.52,0,0,1,.15.43Z"/><path class="cls-2" d="M204,102.76l-1.18-.09v-5l.23-.06a1.55,1.55,0,0,1,.31,0,.8.8,0,0,1,.49.13.55.55,0,0,1,.15.43Zm-1.18-.69,1.18.1v2.92a.64.64,0,0,1-.21.07,1.76,1.76,0,0,1-.33,0,.79.79,0,0,1-.48-.13.48.48,0,0,1-.16-.42Z"/><path class="cls-2" d="M206.73,103.87c-.13-.25-.28-.58-.45-1s-.35-.85-.53-1.36-.37-1-.54-1.63a.84.84,0,0,1,.27-.21.86.86,0,0,1,.36-.08.7.7,0,0,1,.42.12.76.76,0,0,1,.25.41c.21.63.43,1.24.66,1.85s.47,1.23.74,1.88h0a10.79,10.79,0,0,0,.47-1.2c.17-.47.32-1,.47-1.48s.27-1,.37-1.46a1.35,1.35,0,0,1,.24-.08.84.84,0,0,1,.69.08.41.41,0,0,1,.16.37,3.07,3.07,0,0,1-.1.67,9.73,9.73,0,0,1-.27,1c-.12.38-.26.77-.41,1.19s-.31.81-.49,1.2a10.46,10.46,0,0,1-.53,1.06,8.63,8.63,0,0,1-1,1.55,1.28,1.28,0,0,1-.88.53.69.69,0,0,1-.51-.18.79.79,0,0,1-.23-.43,7.1,7.1,0,0,0,.55-.55,7,7,0,0,0,.58-.72,6.19,6.19,0,0,0,.46-.73,1,1,0,0,1-.37-.22A2.35,2.35,0,0,1,206.73,103.87Z"/><line class="cls-4" x1="93.88" y1="111.03" x2="207.7" y2="111.03"/></g></g></svg>